<?xml version="1.0" standalone="no"?>
<svg
  width="600"
  height="600"
  viewBox="0 0 600 600"
  xmlns="http://www.w3.org/2000/svg"
>
  <g transform="translate(300,300)">
    <path d="M73.3,-104.3C107.1,-76.4,154.8,-71.1,184.7,-44.6C214.6,-18,226.7,29.8,216.5,73.2C206.4,116.7,174,155.8,134.2,181.4C94.4,207,47.2,219,-0.7,219.9C-48.6,220.9,-97.2,210.8,-132.7,183.8C-168.2,156.8,-190.6,113,-201.7,68.1C-212.7,23.2,-212.4,-22.9,-204.5,-72.4C-196.6,-122,-181.2,-175.1,-145.9,-202.4C-110.5,-229.8,-55.3,-231.4,-17.7,-207C19.8,-182.6,39.6,-132.1,73.3,-104.3Z" fill="#f26f61" />
  </g>
</svg>
    