<?xml version="1.0" standalone="no"?>
<svg
  width="600"
  height="600"
  viewBox="0 0 600 600"
  xmlns="http://www.w3.org/2000/svg"
>
  <g transform="translate(300,300)">
    <path d="M103,-171.2C115.8,-132.4,96.4,-78.7,98.6,-39.7C100.8,-0.6,124.6,23.8,131.2,54.8C137.9,85.8,127.4,123.4,102.7,139.9C78,156.3,39,151.7,-1.4,153.6C-41.7,155.4,-83.5,163.9,-130.1,154.5C-176.7,145.2,-228.1,118,-254.2,74C-280.2,30.1,-280.9,-30.7,-241.7,-56.1C-202.6,-81.5,-123.6,-71.5,-76.7,-99.2C-29.8,-127,-14.9,-192.5,15.1,-213.3C45.1,-234,90.1,-210,103,-171.2Z" fill="#f26f61" />
  </g>
</svg>
    