<?xml version="1.0" standalone="no"?>
<svg
  width="600"
  height="600"
  viewBox="0 0 600 600"
  xmlns="http://www.w3.org/2000/svg"
>
  <g transform="translate(300,300)">
    <path d="M50.3,-93.6C59,-52.6,55.6,-30.9,85.3,4.6C115,40.2,177.9,89.6,179.5,119.3C181,149,121.3,159.1,64.5,181.8C7.6,204.5,-46.3,239.9,-77.5,223.8C-108.7,207.7,-117.1,140.1,-113.9,91.8C-110.6,43.6,-95.7,14.7,-82.2,-6.2C-68.6,-27.1,-56.5,-40,-43,-80.1C-29.6,-120.2,-14.8,-187.6,3,-191.2C20.8,-194.8,41.6,-134.5,50.3,-93.6Z" fill="#f26f61" />
  </g>
</svg>
    